<?xml version="1.0" encoding="UTF-8" standalone="no" ?>
<!DOCTYPE svg PUBLIC "-//W3C//DTD SVG 1.1//EN" "http://www.w3.org/Graphics/SVG/1.1/DTD/svg11.dtd">
<svg xmlns="http://www.w3.org/2000/svg" xmlns:xlink="http://www.w3.org/1999/xlink" version="1.1" width="1024" height="1024" viewBox="0 0 1024 1024" xml:space="preserve">
<desc>Created with Fabric.js 4.6.0</desc>
<defs>
</defs>
<g transform="matrix(2.02 0 0 -2.02 418.54 433.01)" id="V_xFIlEe9asqDk8A2vFaG" clip-path="url(#CLIPPATH_1)"  >
<clipPath id="CLIPPATH_1" >
	<path transform="matrix(1 0 0 1 12.3 -34.74) translate(-420.94, -297.64)" id="cp0" d="M 0 595.28 L 841.89 595.28 L 841.89 0 L 0 0 Z" stroke-linecap="round" />
</clipPath>
<path style="stroke: none; stroke-width: 1; stroke-dasharray: none; stroke-linecap: butt; stroke-dashoffset: 0; stroke-linejoin: miter; stroke-miterlimit: 4; fill: rgb(204,204,204); fill-rule: evenodd; opacity: 1;" vector-effect="non-scaling-stroke"  transform=" translate(110.98, -213.35)" d="M 0 0 C -6.066 2.688 -11.9 5.317 -17.768 7.867 C -54.671 23.908 -92.188 38.111 -132.02 45.138 C -159.336 49.956 -186.665 50.856 -213.83 44.026 C -217.894 43.005 -219.461 43.821 -219.862 48.258 C -221.649 68.026 -222.322 87.825 -221.829 107.653 C -220.174 174.099 -202.906 235.848 -166.337 291.807 C -140.419 331.467 -107.474 364.391 -70.045 393.089 C -54.444 405.051 -38.206 416.063 -20.939 426.695 C -20.91 424.189 -22.34 423.018 -23.305 421.685 C -49.761 385.153 -71.788 346.31 -85.134 302.963 C -94.378 272.937 -98.933 242.195 -97.468 210.788 C -95.413 166.736 -82.528 125.746 -61.534 87.091 C -45.05 56.738 -24.355 29.477 -1.687 3.592 C -0.965 2.766 0.232 2.182 0 0" stroke-linecap="round" />
</g>
<g transform="matrix(2.02 0 0 -2.02 512 902.27)" id="BUekFRn7Oqs5z3R_iNniC" clip-path="url(#CLIPPATH_2)"  >
<clipPath id="CLIPPATH_2" >
	<path transform="matrix(1 0 0 1 -33.75 196.49) translate(-420.94, -297.64)" id="cp0" d="M 0 595.28 L 841.89 595.28 L 841.89 0 L 0 0 Z" stroke-linecap="round" />
</clipPath>
<path style="stroke: none; stroke-width: 1; stroke-dasharray: none; stroke-linecap: butt; stroke-dashoffset: 0; stroke-linejoin: miter; stroke-miterlimit: 4; fill: rgb(51,102,153); fill-rule: evenodd; opacity: 1;" vector-effect="non-scaling-stroke"  transform=" translate(189.56, -14.53)" d="M 0 0 C -1.141 -5.557 -3.951 -10.159 -7.566 -14.284 C -17.025 -25.081 -29.375 -29.669 -43.346 -30.729 C -58.4 -31.871 -72.725 -28.867 -86.957 -24.094 C -118.063 -13.66 -148.764 -2.053 -180.087 7.753 C -205.865 15.824 -231.857 23.036 -258.655 26.751 C -278.854 29.551 -299.095 30.496 -319.045 24.638 C -344.159 17.262 -357.504 -0.29 -362.227 -25.288 C -362.751 -28.066 -363.103 -30.877 -363.572 -33.667 C -363.62 -33.948 -363.929 -34.186 -364.143 -34.479 C -365.749 -34.72 -365.992 -33.311 -366.479 -32.379 C -373.326 -19.27 -378.693 -5.603 -379.106 9.349 C -379.596 27.121 -371.643 40.829 -356.926 50.469 C -343.927 58.983 -329.329 62.864 -313.917 63.411 C -273.275 64.854 -234.619 55.465 -196.829 41.532 C -166.325 30.286 -137.318 15.533 -107.24 3.295 C -90.404 -3.556 -73.381 -9.713 -55.143 -11.931 C -36.973 -14.141 -20.02 -11.075 -4.297 -1.595 C -3.303 -0.995 -2.303 -0.397 -1.271 0.133 C -1.041 0.251 -0.662 0.08 0 0" stroke-linecap="round" />
</g>
<g transform="matrix(2.02 0 0 -2.02 572.85 416.2)" id="rt4pIXUo2SGpU1t6Lhl2O" clip-path="url(#CLIPPATH_3)"  >
<clipPath id="CLIPPATH_3" >
	<path transform="matrix(1 0 0 1 -63.74 -43.02) translate(-420.94, -297.64)" id="cp0" d="M 0 595.28 L 841.89 595.28 L 841.89 0 L 0 0 Z" stroke-linecap="round" />
</clipPath>
<path style="stroke: none; stroke-width: 1; stroke-dasharray: none; stroke-linecap: butt; stroke-dashoffset: 0; stroke-linejoin: miter; stroke-miterlimit: 4; fill: rgb(153,153,153); fill-rule: evenodd; opacity: 1;" vector-effect="non-scaling-stroke"  transform=" translate(48.25, 151.94)" d="M 0 0 C -4.223 -7.159 -7.98 -13.355 -11.572 -19.646 C -32.553 -56.403 -45.463 -95.895 -51.956 -137.648 C -56.64 -167.77 -56.954 -198.067 -55.72 -228.356 C -54.765 -251.804 -51.714 -275.12 -47.4 -298.229 C -47.137 -299.646 -47.076 -301.1 -46.775 -303.876 C -51.735 -297.835 -54.55 -292.032 -57.593 -286.436 C -76.548 -251.569 -89.983 -214.794 -94.571 -175.193 C -97.691 -148.257 -97.192 -121.313 -91.914 -94.629 C -90.635 -88.163 -86.091 -83.081 -82.533 -77.687 C -63.911 -49.447 -39.064 -27.429 -12.02 -7.661 C -8.506 -5.093 -5.447 -1.733 0 0" stroke-linecap="round" />
</g>
<g transform="matrix(2.02 0 0 -2.02 445.21 969.62)" id="aEjym4H1HwEV7-qiw5FLp" clip-path="url(#CLIPPATH_4)"  >
<clipPath id="CLIPPATH_4" >
	<path transform="matrix(1 0 0 1 -0.84 229.67) translate(-420.94, -297.64)" id="cp0" d="M 0 595.28 L 841.89 595.28 L 841.89 0 L 0 0 Z" stroke-linecap="round" />
</clipPath>
<path style="stroke: none; stroke-width: 1; stroke-dasharray: none; stroke-linecap: butt; stroke-dashoffset: 0; stroke-linejoin: miter; stroke-miterlimit: 4; fill: rgb(36,80,201); fill-rule: evenodd; opacity: 1;" vector-effect="non-scaling-stroke"  transform=" translate(119.71, -11.71)" d="M 0 0 C -5.326 -0.678 -10.693 0.268 -15.898 1.132 C -36.76 4.593 -57.556 8.455 -78.392 12.077 C -105.147 16.729 -131.992 20.92 -159.24 20.471 C -177.113 20.176 -194.838 18.249 -211.31 10.337 C -221.784 5.305 -230.351 -1.827 -236.154 -12.055 C -236.776 -13.15 -237.185 -14.549 -239.557 -15.209 C -239.931 -3.669 -238.388 7.118 -232.224 16.779 C -224.499 28.888 -212.448 34.196 -198.91 36.677 C -177.068 40.679 -155.415 37.835 -133.868 34.25 C -94.849 27.757 -56.978 16.449 -18.824 6.332 C -12.484 4.651 -6.152 2.948 0.184 1.256 C 0.123 0.837 0.061 0.419 0 0" stroke-linecap="round" />
</g>
</svg>