<?xml version="1.0" standalone="no"?>
<!DOCTYPE svg PUBLIC "-//W3C//DTD SVG 20010904//EN"
 "http://www.w3.org/TR/2001/REC-SVG-20010904/DTD/svg10.dtd">
<svg version="1.0" xmlns="http://www.w3.org/2000/svg"
 width="700.000000pt" height="700.000000pt" viewBox="0 0 700.000000 700.000000"
 preserveAspectRatio="xMidYMid meet">
<metadata>
Created by potrace 1.14, written by Peter Selinger 2001-2017
</metadata>
<g transform="translate(0.000000,700.000000) scale(0.100000,-0.100000)"
fill="#000000" stroke="none">
<path d="M3965 6898 c-1004 -641 -1716 -1393 -2151 -2274 -52 -105 -94 -198
-94 -207 0 -10 -4 -17 -9 -17 -5 0 -11 -10 -14 -22 -3 -13 -28 -84 -57 -157
-46 -122 -143 -425 -154 -483 -2 -13 -9 -41 -15 -64 -31 -115 -92 -463 -106
-606 -3 -29 -8 -66 -10 -83 -14 -103 -20 -293 -20 -595 1 -425 13 -635 40
-676 l14 -22 93 20 c216 45 299 53 538 53 164 0 269 -6 365 -20 65 -10 111
-17 140 -21 17 -2 41 -6 55 -9 14 -3 41 -8 60 -11 19 -3 55 -10 80 -16 25 -5
56 -12 70 -14 91 -17 508 -137 620 -179 19 -7 69 -25 110 -40 41 -15 84 -30
95 -35 11 -4 70 -27 130 -51 114 -44 477 -197 578 -243 32 -15 63 -26 69 -24
9 3 -95 136 -122 158 -19 14 -268 332 -346 440 -197 273 -317 470 -452 742
-93 186 -120 246 -148 321 -9 23 -22 56 -29 72 -37 85 -138 418 -161 530 -2
11 -6 31 -9 45 -11 47 -43 235 -50 290 -4 30 -9 66 -10 80 -24 184 -24 604 0
775 2 17 9 66 15 110 16 112 15 108 46 260 106 523 377 1140 742 1695 111 168
212 312 225 321 5 4 7 14 5 23 -2 13 -31 -1 -133 -66z"/>
<path d="M4534 6232 c-25 -14 -257 -185 -274 -202 -3 -3 -39 -32 -80 -64 -175
-139 -412 -368 -540 -521 -76 -92 -226 -299 -276 -382 -34 -57 -48 -94 -59
-163 -3 -19 -8 -42 -10 -50 -2 -8 -7 -42 -10 -75 -3 -33 -8 -67 -10 -75 -27
-106 -27 -676 1 -865 12 -90 35 -234 40 -260 67 -358 211 -772 387 -1115 116
-227 216 -400 231 -400 3 0 -17 144 -30 210 -12 65 -40 256 -50 340 -3 30 -7
66 -10 80 -2 14 -6 59 -10 100 -3 41 -7 89 -9 105 -23 174 -23 873 0 1115 1
19 6 67 9 105 3 39 8 81 11 95 2 14 7 45 10 70 3 25 10 70 15 100 5 30 12 71
15 90 20 121 55 279 97 435 28 104 128 417 148 460 5 11 30 72 56 134 84 203
233 487 375 718 23 37 18 40 -27 15z"/>
<path d="M1665 1499 c-163 -21 -354 -90 -484 -176 -93 -61 -185 -163 -231
-256 -50 -102 -68 -189 -65 -309 3 -103 6 -118 34 -230 50 -194 178 -441 182
-350 0 9 2 26 4 37 22 122 30 158 46 205 92 289 280 470 574 554 157 45 259
56 480 51 185 -4 227 -7 310 -20 17 -3 62 -9 100 -15 81 -11 113 -17 175 -30
106 -22 278 -61 315 -71 22 -6 56 -14 75 -19 19 -5 91 -25 160 -45 69 -20 148
-42 175 -50 78 -22 541 -176 735 -245 96 -34 189 -66 205 -71 17 -5 39 -13 50
-18 40 -19 462 -159 555 -184 207 -56 378 -65 586 -32 18 2 62 15 98 29 169
61 310 192 360 334 14 40 14 42 -4 42 -10 0 -21 -4 -24 -9 -13 -21 -207 -105
-292 -127 -87 -21 -197 -37 -269 -37 -44 0 -203 13 -218 18 -6 2 -30 7 -52 10
-210 30 -571 166 -1200 450 -33 15 -91 40 -130 57 -38 16 -78 34 -87 39 -39
20 -274 116 -407 165 -207 78 -555 186 -676 210 -11 2 -29 6 -40 8 -124 29
-301 59 -416 71 -30 4 -67 8 -84 11 -57 10 -470 11 -540 3z"/>
<path d="M2217 744 c-1 -1 -45 -4 -97 -7 -83 -6 -120 -11 -226 -31 -12 -2 -54
-16 -93 -29 -252 -88 -393 -285 -408 -570 -7 -126 2 -132 57 -41 142 235 453
386 865 419 66 6 416 6 480 0 149 -12 202 -17 225 -20 14 -2 52 -7 85 -11 33
-4 67 -8 75 -9 8 -1 40 -5 70 -9 30 -4 81 -12 112 -17 84 -15 99 -17 140 -23
21 -3 77 -13 125 -22 49 -8 149 -26 223 -39 74 -13 176 -31 225 -40 50 -9 101
-18 115 -20 27 -4 64 -10 155 -26 33 -6 74 -13 90 -16 17 -2 54 -8 84 -13 68
-12 181 -13 181 -2 0 7 -81 33 -180 57 -12 3 -75 21 -245 67 -99 27 -188 51
-197 53 -16 3 -75 19 -308 82 -52 14 -102 27 -110 29 -8 2 -60 15 -115 29
-125 32 -478 110 -565 125 -36 6 -76 13 -90 16 -14 2 -65 10 -115 18 -79 13
-113 18 -225 32 -58 7 -328 22 -333 18z"/>
</g>
</svg>
