<?xml version="1.0" encoding="utf-8"?>
<!-- Svg Vector Icons : http://www.onlinewebfonts.com/icon -->
<!DOCTYPE svg PUBLIC "-//W3C//DTD SVG 1.1//EN" "http://www.w3.org/Graphics/SVG/1.1/DTD/svg11.dtd">
<svg version="1.1" xmlns="http://www.w3.org/2000/svg" xmlns:xlink="http://www.w3.org/1999/xlink" x="0px" y="0px" viewBox="0 0 1000 1000" enable-background="new 0 0 1000 1000" xml:space="preserve">
<metadata> Svg Vector Icons : http://www.onlinewebfonts.com/icon </metadata>
<g><g transform="translate(0.000000,511.000000) scale(0.100000,-0.100000)"><path d="M7631.9,4993.2c-23-9.6-84.4-49.9-132.4-86.3c-115.1-88.2-293.5-172.6-448.9-212.9c-103.6-28.8-243.6-32.6-909.3-36.5c-844-3.8-941.9-13.4-1208.5-113.2c-433.5-165-903.5-527.5-1260.3-974.5L3538.3,3401h-201.4c-235.9,0-312.7-26.9-358.7-124.7c-26.9-55.6-30.7-186.1-30.7-995.6v-932.3h-429.7c-236,0-445-5.7-462.3-11.5C2022.9,1323.5,561.1-331.9,517-404.8c-17.3-30.7-23-523.7-24.9-2117.8c0-2275.1-5.8-2177.2,113.2-2236.7c51.8-26.8,494.9-30.7,4394.8-30.7c3899.8,0,4343,3.8,4394.7,30.7c118.9,59.5,113.2-38.4,113.2,2232.9c0,1440.6-5.7,2085.2-21.1,2112c-36.4,69.1-1436.8,1674.6-1498.2,1720.7c-59.5,42.2-65.2,42.2-709.8,42.2h-648.4l3.8,675.2l5.8,677.1l95.9,51.8c53.7,28.8,182.2,82.5,289.7,118.9c397.1,138.1,941.9,410.5,1571.1,784.6c159.2,94,306.9,191.8,331.9,216.8c46,51.8,57.5,172.6,23,239.8c-24.9,46-117,94-184.1,94c-30.7,0-191.8-84.4-408.6-214.9c-588.9-353-1108.7-610-1521.2-753.9c-101.7-36.5-280.1-117-395.2-180.3c-186.1-99.8-886.3-516-1168.2-692.5c-69-44.1-113.2-59.5-145.8-51.8c-49.9,13.4-134.3,147.7-118.9,188c5.8,15.3,166.9,134.3,354.9,266.6c870.9,606.2,863.2,600.4,863.2,723.2c0,90.1-84.4,178.4-182.2,189.9c-71,9.6-92.1,0-283.9-134.3L5554.4,3401h-752h-752l163,165c310.8,314.6,590.8,502.6,899.7,608.1l184.1,61.4l815.3,1.9c857.5,0,897.8,3.8,1170.2,94c272.4,90.2,598.5,316.5,623.4,431.6c17.3,78.7-36.5,182.2-115.1,218.7C7720.1,5016.2,7695.2,5018.1,7631.9,4993.2z M4842.7,2896.5c-188-153.5-257-387.5-186.1-627.3c59.5-201.4,310.8-354.9,554.4-341.4c145.8,7.7,170.7,19.2,585.1,272.4c168.8,103.6,335.7,205.3,370.2,226.4l61.4,38.4v-970.6V523.6H4798.6H3369.5v1227.7V2979H4156h788.4L4842.7,2896.5z M2947.5,734.6v-211h-138.1c-147.7,0-199.5-24.9-243.6-109.3c-40.3-80.6-24.9-159.2,44.1-228.3l65.2-65.2h2267.4c2081.3,0,2271.2,1.9,2321.1,32.6c105.5,61.4,128.5,214.8,49.9,306.9l-46,53.7l-314.6,9.6l-312.7,9.6v201.4V936l567.8,5.7l569.7,3.8l527.5-608.1l529.4-610l-1918.3-5.8c-1053.1-1.9-2779.6-1.9-3832.7,0l-1916.3,5.8L1503,111.2c186.1,211,427.8,485.3,537.1,610l199.5,224.4h353h354.9V734.6z M9085.9-2545.6v-1841.5H5000H914.1v1841.5v1841.5H5000h4085.9V-2545.6z"/></g></g>
</svg>